<?xml version="1.0" encoding="UTF-8"?>
<svg width="18px" height="18px" viewBox="0 0 18 18" version="1.1" xmlns="http://www.w3.org/2000/svg" xmlns:xlink="http://www.w3.org/1999/xlink">
    <title>record</title>
    <g id="控件" stroke="none" stroke-width="1" fill="none" fill-rule="evenodd">
        <g id="录制中备份-5" transform="translate(-57, -5)" fill="#FFFFFF">
            <g id="record" transform="translate(57, 5)">
                <g id="group" fill-opacity="0.86" fill-rule="nonzero" opacity="0">
                    <rect id="矩形" x="0" y="0" width="18" height="18"></rect>
                </g>
                <path d="M9,17.2425 C10.49,17.2425 11.8675,16.875 13.1325,16.14 C14.3975,15.4 15.4,14.3975 16.14,13.1325 C16.875,11.8675 17.2425,10.49 17.2425,9 C17.2425,7.51 16.875,6.1325 16.14,4.8675 C15.4,3.6025 14.3975,2.6 13.1325,1.86 C11.8675,1.125 10.49,0.7575 9,0.7575 C7.51,0.7575 6.1325,1.125 4.8675,1.86 C3.6025,2.6 2.6,3.6025 1.86,4.8675 C1.125,6.1325 0.7575,7.51 0.7575,9 C0.7575,10.49 1.125,11.8675 1.86,13.1325 C2.6,14.3975 3.6025,15.4 4.8675,16.14 C6.1325,16.875 7.51,17.2425 9,17.2425 Z M9,1.875 C10.285,1.875 11.4725,2.195 12.5625,2.835 C13.6575,3.475 14.525,4.3425 15.165,5.4375 C15.805,6.5275 16.125,7.715 16.125,9 C16.125,10.285 15.805,11.4725 15.165,12.5625 C14.525,13.6575 13.6575,14.525 12.5625,15.165 C11.4725,15.805 10.285,16.125 9,16.125 C7.715,16.125 6.5275,15.805 5.4375,15.165 C4.3425,14.525 3.475,13.6575 2.835,12.5625 C2.195,11.4725 1.875,10.285 1.875,9 C1.875,7.715 2.195,6.5275 2.835,5.4375 C3.475,4.3425 4.3425,3.475 5.4375,2.835 C6.5275,2.195 7.715,1.875 9,1.875 Z" id="形状" fill-rule="nonzero"></path>
                <rect id="Rectangle" x="5.75" y="5.75" width="6.5" height="6.5" rx="1"></rect>
            </g>
        </g>
    </g>
</svg>